HIERARCHY
ROOT Hips
{
	OFFSET 0.000000 103.266502 0.000000
	CHANNELS 6 Xposition Yposition Zposition Xrotation Yrotation Zrotation 
	JOINT Spine
	{
		OFFSET -0.002400 12.777504 0.315300
		CHANNELS 3 Xrotation Yrotation Zrotation
		JOINT Spine1
		{
			OFFSET -0.002067 5.816869 0.032633
			CHANNELS 3 Xrotation Yrotation Zrotation
			JOINT Spine1_split
			{
				OFFSET -0.002067 5.816869 0.032633
				CHANNELS 3 Xrotation Yrotation Zrotation
				JOINT Spine2
				{
					OFFSET -0.002067 5.816869 0.032633
					CHANNELS 3 Xrotation Yrotation Zrotation
					JOINT Neck
					{
						OFFSET -0.003700 21.199493 -0.826900
						CHANNELS 3 Xrotation Yrotation Zrotation
						JOINT Head
						{
							OFFSET 0.000000 20.442200 4.834800
							CHANNELS 3 Xrotation Yrotation Zrotation
							JOINT HeadTop_End
							{
								OFFSET 0.000000 34.668396 4.968400
								CHANNELS 3 Xrotation Yrotation Zrotation
								End Site
								{
									OFFSET 0.000000 0.000000 0.000000
								}
							}
						}
					}
					JOINT LeftShoulder
					{
						OFFSET 3.288150 8.794197 -1.372250
						CHANNELS 3 Xrotation Yrotation Zrotation
						JOINT LeftShoulder_split
						{
							OFFSET 3.288150 8.794197 -1.372250
							CHANNELS 3 Xrotation Yrotation Zrotation
							JOINT LeftArm
							{
								OFFSET 11.953299 -2.279007 -0.146200
								CHANNELS 3 Xrotation Yrotation Zrotation
								JOINT LeftForeArm
								{
									OFFSET 18.448900 0.000000 0.000000
									CHANNELS 3 Xrotation Yrotation Zrotation
									JOINT LeftHand
									{
										OFFSET 29.527798 0.000000 0.000000
										CHANNELS 3 Xrotation Yrotation Zrotation
										JOINT LeftHandThumb1
										{
											OFFSET 10.739754 -2.369614 9.225399
											CHANNELS 3 Xrotation Yrotation Zrotation
											JOINT LeftHandThumb2
											{
												OFFSET 4.926170 -2.844131 2.844125
												CHANNELS 3 Xrotation Yrotation Zrotation
												JOINT LeftHandThumb3
												{
													OFFSET 4.614891 -2.664413 2.664409
													CHANNELS 3 Xrotation Yrotation Zrotation
													JOINT LeftHandThumb4
													{
														OFFSET 4.432465 -2.559082 2.559083
														CHANNELS 3 Xrotation Yrotation Zrotation
														End Site
														{
															OFFSET 0.000000 0.000000 0.000000
														}
													}
												}
											}
										}
										JOINT LeftHandIndex1
										{
											OFFSET 26.467674 0.187653 6.405298
											CHANNELS 3 Xrotation Yrotation Zrotation
											JOINT LeftHandIndex2
											{
												OFFSET 8.792900 0.000000 0.000000
												CHANNELS 3 Xrotation Yrotation Zrotation
												JOINT LeftHandIndex3
												{
													OFFSET 10.075203 0.000000 0.000000
													CHANNELS 3 Xrotation Yrotation Zrotation
													End Site
													{
														OFFSET 0.000000 0.000000 0.000000
													}
												}
											}
										}
										JOINT LeftHandMiddle1
										{
											OFFSET 25.764404 0.000000 0.000000
											CHANNELS 3 Xrotation Yrotation Zrotation
											JOINT LeftHandMiddle2
											{
												OFFSET 9.393974 0.000000 0.000000
												CHANNELS 3 Xrotation Yrotation Zrotation
												JOINT LeftHandMiddle3
												{
													OFFSET 10.771950 0.000000 0.000000
													CHANNELS 3 Xrotation Yrotation Zrotation
													End Site
													{
														OFFSET 0.000000 0.000000 0.000000
													}
												}
											}
										}
										JOINT LeftHandRing1
										{
											OFFSET 24.660927 0.144547 -6.225808
											CHANNELS 3 Xrotation Yrotation Zrotation
											JOINT LeftHandRing2
											{
												OFFSET 9.393799 0.000000 0.000000
												CHANNELS 3 Xrotation Yrotation Zrotation
												JOINT LeftHandRing3
												{
													OFFSET 9.928497 0.000000 0.000000
													CHANNELS 3 Xrotation Yrotation Zrotation
													End Site
													{
														OFFSET 0.000000 0.000000 0.000000
													}
												}
											}
										}
										JOINT LeftHandPinky1
										{
											OFFSET 23.655350 0.125290 -12.815412
											CHANNELS 3 Xrotation Yrotation Zrotation
											JOINT LeftHandPinky2
											{
												OFFSET 8.425102 0.000000 0.000000
												CHANNELS 3 Xrotation Yrotation Zrotation
												JOINT LeftHandPinky3
												{
													OFFSET 8.147003 0.000000 0.000000
													CHANNELS 3 Xrotation Yrotation Zrotation
													End Site
													{
														OFFSET 0.000000 0.000000 0.000000
													}
												}
											}
										}
									}
								}
							}
						}
					}
					JOINT RightShoulder
					{
						OFFSET -3.249400 8.794197 -1.372250
						CHANNELS 3 Xrotation Yrotation Zrotation
						JOINT RightShoulder_split
						{
							OFFSET -3.249400 8.794197 -1.372250
							CHANNELS 3 Xrotation Yrotation Zrotation
							JOINT RightArm
							{
								OFFSET -11.953299 -2.279007 -0.146200
								CHANNELS 3 Xrotation Yrotation Zrotation
								JOINT RightForeArm
								{
									OFFSET -18.448900 0.000000 0.000000
									CHANNELS 3 Xrotation Yrotation Zrotation
									JOINT RightHand
									{
										OFFSET -29.527802 0.000000 0.000000
										CHANNELS 3 Xrotation Yrotation Zrotation
										JOINT RightHandThumb1
										{
											OFFSET -10.739754 -2.369614 9.225399
											CHANNELS 3 Xrotation Yrotation Zrotation
											JOINT RightHandThumb2
											{
												OFFSET -4.926170 -2.844131 2.844125
												CHANNELS 3 Xrotation Yrotation Zrotation
												JOINT RightHandThumb3
												{
													OFFSET -4.614891 -2.664413 2.664409
													CHANNELS 3 Xrotation Yrotation Zrotation
													JOINT RightHandThumb4
													{
														OFFSET -4.432465 -2.559082 2.559083
														CHANNELS 3 Xrotation Yrotation Zrotation
														End Site
														{
															OFFSET 0.000000 0.000000 0.000000
														}
													}
												}
											}
										}
										JOINT RightHandIndex1
										{
											OFFSET -26.467674 0.187653 6.405298
											CHANNELS 3 Xrotation Yrotation Zrotation
											JOINT RightHandIndex2
											{
												OFFSET -8.792900 0.000000 0.000000
												CHANNELS 3 Xrotation Yrotation Zrotation
												JOINT RightHandIndex3
												{
													OFFSET -10.075203 0.000000 0.000000
													CHANNELS 3 Xrotation Yrotation Zrotation
													End Site
													{
														OFFSET 0.000000 0.000000 0.000000
													}
												}
											}
										}
										JOINT RightHandMiddle1
										{
											OFFSET -25.764404 0.000000 0.000000
											CHANNELS 3 Xrotation Yrotation Zrotation
											JOINT RightHandMiddle2
											{
												OFFSET -9.393974 0.000000 0.000000
												CHANNELS 3 Xrotation Yrotation Zrotation
												JOINT RightHandMiddle3
												{
													OFFSET -10.771950 0.000000 0.000000
													CHANNELS 3 Xrotation Yrotation Zrotation
													End Site
													{
														OFFSET 0.000000 0.000000 0.000000
													}
												}
											}
										}
										JOINT RightHandRing1
										{
											OFFSET -24.660927 0.144547 -6.225808
											CHANNELS 3 Xrotation Yrotation Zrotation
											JOINT RightHandRing2
											{
												OFFSET -9.393799 0.000000 0.000000
												CHANNELS 3 Xrotation Yrotation Zrotation
												JOINT RightHandRing3
												{
													OFFSET -9.928497 0.000000 0.000000
													CHANNELS 3 Xrotation Yrotation Zrotation
													End Site
													{
														OFFSET 0.000000 0.000000 0.000000
													}
												}
											}
										}
										JOINT RightHandPinky1
										{
											OFFSET -23.655350 0.125290 -12.815412
											CHANNELS 3 Xrotation Yrotation Zrotation
											JOINT RightHandPinky2
											{
												OFFSET -8.425102 0.000000 0.000000
												CHANNELS 3 Xrotation Yrotation Zrotation
												JOINT RightHandPinky3
												{
													OFFSET -8.147003 0.000000 0.000000
													CHANNELS 3 Xrotation Yrotation Zrotation
													End Site
													{
														OFFSET 0.000000 0.000000 0.000000
													}
												}
											}
										}
									}
								}
							}
						}
					}
				}
			}
		}
	}
	JOINT LeftUpLeg
	{
		OFFSET 11.394100 -6.187798 -0.413800
		CHANNELS 3 Xrotation Yrotation Zrotation
		JOINT LeftLeg
		{
			OFFSET 0.430247 -32.302673 3.732800
			CHANNELS 3 Xrotation Yrotation Zrotation
			JOINT LeftFoot
			{
				OFFSET -0.430247 -48.264931 -6.423300
				CHANNELS 3 Xrotation Yrotation Zrotation
				JOINT LeftToeBase
				{
					OFFSET 4.230900 -16.068199 23.438400
					CHANNELS 3 Xrotation Yrotation Zrotation
					JOINT LeftToe_End
					{
						OFFSET 4.510700 0.695400 19.974600
						CHANNELS 3 Xrotation Yrotation Zrotation
						End Site
						{
							OFFSET 0.000000 0.000000 0.000000
						}
					}
				}
			}
		}
	}
	JOINT RightUpLeg
	{
		OFFSET -11.333700 -6.187798 -0.413800
		CHANNELS 3 Xrotation Yrotation Zrotation
		JOINT RightLeg
		{
			OFFSET -0.430392 -32.302628 3.733000
			CHANNELS 3 Xrotation Yrotation Zrotation
			JOINT RightFoot
			{
				OFFSET 0.430392 -48.264973 -6.423500
				CHANNELS 3 Xrotation Yrotation Zrotation
				JOINT RightToeBase
				{
					OFFSET -4.230900 -16.068199 23.438400
					CHANNELS 3 Xrotation Yrotation Zrotation
					JOINT RightToe_End
					{
						OFFSET -4.510700 0.695400 19.974600
						CHANNELS 3 Xrotation Yrotation Zrotation
						End Site
						{
							OFFSET 0.000000 0.000000 0.000000
						}
					}
				}
			}
		}
	}
}
MOTION
Frames: 4
Frame Time: 0.016667
-16.098965 14.868073 -79.617516 -87.104815 26.299865 5.605762 54.128850 10.946293 -3.087796 20.535748 3.211053 0.186204 0.000000 0.000000 0.000000 20.612227 2.862305 0.333966 6.354672 0.273872 -2.216752 32.669208 -1.249313 -2.725200 -0.000001 -0.000002 0.000001 0.690093 -7.698569 -13.129610 0.000000 0.000000 0.000000 -23.121925 -24.042638 -24.824241 0.000054 -63.058820 0.000065 -1.509115 -20.163912 -5.466381 -8.685538 -15.954383 1.210005 21.854497 36.310819 -10.832604 0.138402 22.599853 19.532534 -0.000001 0.000002 -0.000002 0.653202 -15.996947 0.940936 1.493570 3.908520 -41.813964 0.000000 -0.000001 -0.000001 0.176388 0.770537 4.717971 1.760994 4.187623 -45.600925 0.000001 0.000001 -0.000001 -0.158541 11.618689 1.853052 2.336928 4.681174 -53.039489 0.000001 0.000000 0.000001 5.097415 24.546786 -12.359224 2.096979 4.491177 -50.039199 0.000001 -0.000000 -0.000001 0.136775 13.961784 14.788459 0.000000 0.000000 0.000000 -26.720448 -13.516582 33.282105 0.000001 41.763055 -0.000014 -11.101734 -25.897359 44.633903 -8.583340 16.136747 -7.178711 7.869606 -18.273626 9.753301 0.110989 -5.682747 -15.719781 -0.000000 -0.000000 0.000001 1.587530 7.438674 -9.026640 0.644892 -2.366446 30.483940 0.000000 -0.000001 0.000000 2.008393 2.097543 -33.232808 0.823276 -2.645928 34.561655 -0.000001 0.000000 -0.000000 -0.161322 -5.730947 -3.494289 1.189557 -3.110747 41.846028 0.000001 -0.000001 -0.000002 -0.080031 -27.024002 -1.328621 1.055487 -2.954421 39.312165 -0.000001 -0.000000 0.000002 -70.388112 5.026905 34.512847 65.723878 13.500419 -1.906826 30.250952 8.656294 -2.391193 0.139567 -0.000010 0.000001 0.000002 0.000000 0.000000 -72.955737 18.289126 -35.113729 109.054058 -5.159439 5.199165 49.383603 6.321959 19.126792 -0.000014 0.000001 0.000001 -0.000001 -0.000001 0.000002 
-15.949100 14.677177 -81.002342 -91.503996 25.840038 6.032975 54.020144 11.940990 -2.243791 20.987667 3.430234 0.332318 0.000000 0.000000 0.000000 21.083086 3.010461 0.480113 6.011284 0.280391 -2.502191 29.147539 -1.772878 -3.475362 0.000001 -0.000001 -0.000001 0.654634 -7.640294 -13.060569 0.000000 0.000000 0.000000 -19.361653 -24.125232 -21.499028 0.000076 -64.350798 0.000069 -16.742491 -19.468568 -13.423407 -8.647193 -15.819251 1.255095 21.674171 36.224926 -10.484473 0.031423 22.546859 19.494904 -0.000003 -0.000001 -0.000002 0.555398 -15.865705 0.644520 1.453114 3.862927 -41.217087 -0.000001 -0.000001 0.000001 0.167790 0.758910 4.236379 1.725435 4.152580 -45.111962 0.000000 -0.000001 -0.000002 -0.074922 11.507224 1.341956 2.289178 4.644972 -52.452144 0.000001 -0.000000 -0.000002 5.165658 24.212502 -12.763516 2.067857 4.466698 -49.666356 -0.000001 -0.000000 -0.000002 0.281184 14.030641 13.544991 0.000000 0.000000 0.000000 -21.025814 -14.046619 33.984361 0.000005 42.419699 -0.000006 -13.856798 -29.911202 39.389551 -8.524666 16.035843 -7.103595 7.804534 -18.123448 9.475624 0.007340 -5.624722 -15.681814 0.000002 -0.000002 0.000000 1.572313 7.449070 -8.920443 0.613304 -2.311968 29.709810 0.000001 0.000002 -0.000000 1.979192 2.094964 -32.626933 0.792739 -2.601086 33.894414 -0.000002 -0.000001 -0.000001 -0.150396 -5.701289 -3.349998 1.148412 -3.064238 41.082095 -0.000001 -0.000000 0.000000 -0.000311 -26.834558 -1.130561 1.024677 -2.916451 38.710579 -0.000000 -0.000001 0.000001 -66.268230 4.720627 33.670340 63.333243 12.517778 -0.540125 32.028133 8.764081 0.276550 0.216197 0.000012 -0.000016 0.000001 0.000000 -0.000000 -67.772702 16.454831 -31.115825 107.164582 -5.695028 2.814851 46.931558 5.618217 20.221058 -0.000012 0.000000 -0.000001 -0.000001 0.000001 -0.000001 
-15.741830 14.579117 -82.369370 -96.126689 25.337608 6.625215 53.876334 12.607827 -1.317375 21.302518 3.531561 0.486731 0.000000 0.000000 0.000000 21.413452 3.045619 0.639494 5.772045 0.276186 -2.724577 26.591369 -2.420392 -3.858279 -0.000000 -0.000002 -0.000002 0.618659 -7.705187 -13.035384 0.000000 0.000000 0.000000 -16.051276 -24.091786 -18.542278 0.000001 -64.438921 0.000000 -29.438313 -14.660904 -23.712750 -8.606925 -15.678295 1.302604 21.493734 36.137790 -10.137169 -0.075384 22.493148 19.456779 0.000002 -0.000002 0.000000 0.451706 -15.724103 0.326267 1.413703 3.817608 -40.628967 -0.000001 -0.000001 -0.000004 0.157838 0.750888 3.729259 1.690760 4.117858 -44.631106 0.000000 0.000000 -0.000002 0.010156 11.394071 0.806337 2.242467 4.608809 -51.872958 0.000000 0.000000 0.000000 5.234638 23.869477 -13.188064 2.039545 4.442562 -49.301692 -0.000001 -0.000000 0.000002 0.368021 14.232610 12.568260 0.000000 0.000000 0.000000 -15.163285 -12.817756 34.004438 -0.000002 41.556903 0.000001 -18.970113 -29.594455 30.817612 -8.466253 15.929003 -7.031915 7.746158 -17.979944 9.203225 -0.094121 -5.572745 -15.646005 0.000001 -0.000001 -0.000001 1.531149 7.435911 -8.676669 0.587244 -2.265749 29.057592 0.000000 0.000002 -0.000001 1.934912 2.080033 -31.865401 0.767992 -2.563899 33.345124 0.000001 -0.000003 -0.000001 -0.131343 -5.679938 -3.068228 1.114171 -3.024574 40.437356 0.000000 -0.000000 0.000000 0.140563 -26.599519 -0.778687 1.000176 -2.885643 38.226451 0.000001 -0.000001 -0.000000 -61.670782 4.654570 33.337740 60.979731 11.379348 0.710342 33.747323 8.067808 1.610542 0.305994 0.000023 0.000006 0.000000 -0.000001 -0.000001 -62.040459 15.124289 -27.462239 105.640965 -7.041663 0.311491 44.307027 4.968625 21.439172 0.000015 -0.000015 -0.000002 -0.000001 -0.000001 -0.000001 
-15.525124 14.603241 -83.671852 -100.916817 24.924095 7.306403 53.519607 12.868704 -0.306267 21.392885 3.485087 0.638495 0.000000 0.000000 0.000000 21.512842 2.946441 0.804818 5.701513 0.269790 -2.859057 25.666237 -3.057669 -3.930419 -0.000001 0.000000 0.000000 0.583243 -7.873915 -13.009933 0.000000 0.000000 0.000000 -13.224169 -24.020107 -16.352824 -0.000005 -63.453721 0.000001 -35.332196 -4.373224 -31.544658 -8.564848 -15.531821 1.352427 21.313221 36.049472 -9.790866 -0.181888 22.438737 19.418192 0.000002 -0.000000 -0.000000 0.342698 -15.572435 -0.012863 1.375370 3.772571 -40.049627 -0.000001 0.000003 0.000001 0.146538 0.746360 3.197634 1.656945 4.083404 -44.158273 0.000000 0.000000 0.000000 0.096285 11.279236 0.247318 2.196763 4.572688 -51.301920 0.000000 0.000000 -0.000004 5.303533 23.518133 -13.631775 2.011990 4.418790 -48.945122 0.000002 0.000000 -0.000001 0.413005 14.399157 11.899816 0.000000 0.000000 0.000000 -8.989451 -9.774898 33.560182 0.000004 39.122234 -0.000007 -23.648654 -24.014322 23.764216 -8.408920 15.818467 -6.963152 7.693869 -17.841818 8.937324 -0.193314 -5.525006 -15.612236 0.000001 -0.000000 0.000001 1.460720 7.396307 -8.275145 0.567198 -2.229304 28.546364 -0.000002 0.000000 0.000000 1.874011 2.050740 -30.926827 0.749635 -2.535816 32.932638 -0.000000 -0.000000 -0.000003 -0.103152 -5.668198 -2.628677 1.087583 -2.993138 39.930686 -0.000004 0.000001 0.000000 0.348454 -26.329100 -0.252839 0.982748 -2.863411 37.878948 0.000000 -0.000000 0.000000 -56.922206 4.630237 33.597321 58.973916 10.408742 1.876602 34.772271 6.666694 1.615916 0.390749 -0.000017 0.000001 0.000001 0.000000 0.000001 -55.766176 14.128864 -24.502260 104.277181 -9.098518 -2.108541 41.812403 4.497184 22.882201 0.000004 -0.000003 -0.000003 -0.000002 0.000000 -0.000001 
